<svg id="圖層_1" data-name="圖層 1" xmlns="http://www.w3.org/2000/svg" viewBox="0 0 339.98 61.71"><defs><style>.cls-1{fill:#fff;}</style></defs><rect class="cls-1" x="7033.66" y="7153.56" width="129.66" height="16.29" transform="translate(-5966.41 -8062.88) rotate(8.01)"/><rect class="cls-1" x="7082.51" y="7154.56" width="129.66" height="16.29" transform="translate(-5965.8 -8069.67) rotate(8.01)"/><rect class="cls-1" x="7127.14" y="7160.83" width="129.66" height="16.29" transform="translate(-5108.91 -8656.55) rotate(13.84)"/><rect class="cls-1" x="7162.31" y="7172.65" width="129.66" height="16.29" transform="translate(-5105.06 -8664.62) rotate(13.84)"/><rect class="cls-1" x="7193.09" y="7177.09" width="129.66" height="16.29" transform="translate(-5616.01 -8336.69) rotate(10.41)"/><rect class="cls-1" x="7151.67" y="7158.85" width="46.55" height="16.29" transform="translate(-159.76 -10113.76) rotate(43.33)"/><rect class="cls-1" x="7174.23" y="7156.05" width="46.55" height="16.29" transform="translate(-2486.78 -9782.88) rotate(30)"/><rect class="cls-1" x="7033.66" y="7177.09" width="129.66" height="16.29" transform="translate(-8279.42 -5649.17) rotate(-11.06)"/><rect class="cls-1" x="7076.58" y="7174.98" width="129.66" height="16.29" transform="translate(-8278.22 -5640.98) rotate(-11.06)"/><rect class="cls-1" x="7115.54" y="7174.98" width="129.66" height="16.29" transform="translate(-8277.49 -5633.51) rotate(-11.06)"/><rect class="cls-1" x="7149.82" y="7183.97" width="46.55" height="16.29" transform="translate(-8279.35 -5634.74) rotate(-11.06)"/><rect class="cls-1" x="7186.26" y="7173.64" width="46.55" height="16.29" transform="translate(-9999.83 57.45) rotate(-45)"/><rect class="cls-1" x="7181.71" y="7173.64" width="46.55" height="16.29" transform="translate(-3706.32 -9366.94) rotate(22.68)"/><rect class="cls-1" x="7210.84" y="7177.09" width="46.55" height="16.29" transform="translate(-2124.63 -9886.04) rotate(32.01)"/><rect class="cls-1" x="7167.77" y="7158.64" width="129.66" height="16.29" transform="translate(-8273.39 -5623.8) rotate(-11.06)"/><rect class="cls-1" x="7196.48" y="7158.64" width="129.66" height="16.29" transform="translate(-8272.86 -5618.29) rotate(-11.06)"/><rect class="cls-1" x="7242.98" y="7157.64" width="129.66" height="16.29" transform="translate(-8271.8 -5609.39) rotate(-11.06)"/><rect class="cls-1" x="7242.98" y="7179.58" width="129.66" height="16.29" transform="translate(-5960.75 -8091.78) rotate(8.01)"/><rect class="cls-1" x="7194.67" y="7151.66" width="67.87" height="16.29" transform="translate(-8272.12 -5624.69) rotate(-11.06)"/><rect class="cls-1" x="7222.27" y="7154.56" width="67.87" height="16.29" transform="translate(-4306.03 -9116.03) rotate(19)"/></svg>